<?xml version="1.0" encoding="UTF-8" standalone="no"?>
<!-- Created with Inkscape (http://www.inkscape.org/) -->

<svg
   xmlns:dc="http://purl.org/dc/elements/1.1/"
   xmlns:cc="http://creativecommons.org/ns#"
   xmlns:rdf="http://www.w3.org/1999/02/22-rdf-syntax-ns#"
   xmlns:svg="http://www.w3.org/2000/svg"
   xmlns="http://www.w3.org/2000/svg"
   xmlns:sodipodi="http://sodipodi.sourceforge.net/DTD/sodipodi-0.dtd"
   xmlns:inkscape="http://www.inkscape.org/namespaces/inkscape"
   width="33.866669mm"
   height="29.621876mm"
   viewBox="0 0 33.866669 29.621876"
   version="1.1"
   id="svg8"
   inkscape:version="0.92.5 (2060ec1f9f, 2020-04-08)"
   sodipodi:docname="BlobLogo_128px.svg">
  <defs
     id="defs2" />
  <sodipodi:namedview
     id="base"
     pagecolor="#000000"
     bordercolor="#666666"
     borderopacity="1.0"
     inkscape:pageopacity="0"
     inkscape:pageshadow="2"
     inkscape:zoom="3.959798"
     inkscape:cx="12.112851"
     inkscape:cy="128.00647"
     inkscape:document-units="mm"
     inkscape:current-layer="layer1"
     showgrid="false"
     inkscape:snap-page="false"
     inkscape:window-width="3840"
     inkscape:window-height="2160"
     inkscape:window-x="0"
     inkscape:window-y="0"
     inkscape:window-maximized="1"
     showguides="true"
     inkscape:guide-bbox="true"
     inkscape:snap-bbox="true"
     inkscape:snap-others="false"
     inkscape:bbox-nodes="true">
    <sodipodi:guide
       position="3.5319967e-07,9.2162837e-07"
       orientation="1,0"
       id="guide903"
       inkscape:locked="false"
       inkscape:label=""
       inkscape:color="rgb(0,0,255)" />
    <sodipodi:guide
       position="33.866666,33.866669"
       orientation="1,0"
       id="guide905"
       inkscape:locked="false"
       inkscape:label=""
       inkscape:color="rgb(0,0,255)" />
  </sodipodi:namedview>
  <metadata
     id="metadata5">
    <rdf:RDF>
      <cc:Work
         rdf:about="">
        <dc:format>image/svg+xml</dc:format>
        <dc:type
           rdf:resource="http://purl.org/dc/dcmitype/StillImage" />
        <dc:title></dc:title>
      </cc:Work>
    </rdf:RDF>
  </metadata>
  <g
     inkscape:label="Layer 1"
     inkscape:groupmode="layer"
     id="layer1"
     style="display:inline"
     transform="translate(-34.864002,-107.52057)">
    <path
       style="fill:#ffffff;fill-opacity:1;stroke:none;stroke-width:0.08097485px;stroke-linecap:butt;stroke-linejoin:miter;stroke-opacity:1"
       d="m 51.898953,107.52071 c -11.524457,-0.0578 -17.1327,17.39029 -17.033662,23.5406 0.0576,3.577 3.095319,5.89357 16.831224,6.07312 13.274092,0.17352 16.989079,-2.48339 17.033658,-6.82513 0.05992,-5.83606 -5.306767,-22.73075 -16.83122,-22.78859 z m 3.880307,9.68978 a 1.6963322,2.1961345 0 0 1 1.696361,2.19614 1.6963322,2.1961345 0 0 1 -1.696361,2.19612 1.6963322,2.1961345 0 0 1 -1.696358,-2.19612 1.6963322,2.1961345 0 0 1 1.696358,-2.19614 z m -7.852503,0.0103 a 1.6963322,2.1961345 0 0 1 1.69636,2.19613 1.6963322,2.1961345 0 0 1 -1.69636,2.19614 1.6963322,2.1961345 0 0 1 -1.696361,-2.19614 1.6963322,2.1961345 0 0 1 1.696361,-2.19613 z m 6.772312,1.10741 a 0.40387246,1.0173495 0 0 0 -0.403767,1.01739 0.40387246,1.0173495 0 0 0 0.403767,1.01741 0.40387246,1.0173495 0 0 0 0.403926,-1.01741 0.40387246,1.0173495 0 0 0 -0.403926,-1.01739 z m -7.852503,0.0103 a 0.40387246,1.0173495 0 0 0 -0.403767,1.01741 0.40387246,1.0173495 0 0 0 0.403767,1.01725 0.40387246,1.0173495 0 0 0 0.403923,-1.01725 0.40387246,1.0173495 0 0 0 -0.403923,-1.01741 z"
       id="path847"
       inkscape:connector-curvature="0" />
  </g>
</svg>
